<svg width="16" height="18" viewBox="0 0 16 18" fill="none" xmlns="http://www.w3.org/2000/svg">
<path d="M15.5 2.33335H3.83333C3.39131 2.33335 2.96738 2.50895 2.65482 2.82151C2.34226 3.13407 2.16667 3.55799 2.16667 4.00002C2.16667 4.44205 2.34226 4.86597 2.65482 5.17853C2.96738 5.49109 3.39131 5.66669 3.83333 5.66669H15.5V16.5C15.5 16.721 15.4122 16.933 15.2559 17.0893C15.0996 17.2456 14.8877 17.3334 14.6667 17.3334H3.83333C2.94928 17.3334 2.10143 16.9822 1.47631 16.357C0.851189 15.7319 0.5 14.8841 0.5 14V4.00002C0.5 3.11597 0.851189 2.26812 1.47631 1.643C2.10143 1.01788 2.94928 0.666687 3.83333 0.666687H14.6667C14.8877 0.666687 15.0996 0.754484 15.2559 0.910765C15.4122 1.06704 15.5 1.27901 15.5 1.50002V2.33335ZM2.16667 14C2.16667 14.442 2.34226 14.866 2.65482 15.1785C2.96738 15.4911 3.39131 15.6667 3.83333 15.6667H13.8333V7.33335H3.83333C3.24819 7.33429 2.6732 7.18048 2.16667 6.88752V14ZM14.6667 4.83335H3.83333C3.61232 4.83335 3.40036 4.74556 3.24408 4.58928C3.0878 4.433 3 4.22103 3 4.00002C3 3.77901 3.0878 3.56705 3.24408 3.41076C3.40036 3.25448 3.61232 3.16669 3.83333 3.16669H14.6667V4.83335Z" fill="#447BBA"/>
</svg>
