<svg width="18" height="18" viewBox="0 0 18 18" fill="none" xmlns="http://www.w3.org/2000/svg">
<path d="M12.3334 15.6667V2.33335H2.33335V14.8334C2.33335 15.0544 2.42115 15.2663 2.57743 15.4226C2.73371 15.5789 2.94567 15.6667 3.16669 15.6667H12.3334ZM14.8334 17.3334H3.16669C2.50365 17.3334 1.86776 17.07 1.39892 16.6011C0.930079 16.1323 0.666687 15.4964 0.666687 14.8334V1.50002C0.666687 1.27901 0.754484 1.06704 0.910765 0.910765C1.06704 0.754484 1.27901 0.666687 1.50002 0.666687H13.1667C13.3877 0.666687 13.5997 0.754484 13.7559 0.910765C13.9122 1.06704 14 1.27901 14 1.50002V7.33335H17.3334V14.8334C17.3334 15.4964 17.07 16.1323 16.6011 16.6011C16.1323 17.07 15.4964 17.3334 14.8334 17.3334ZM14 9.00002V14.8334C14 15.0544 14.0878 15.2663 14.2441 15.4226C14.4004 15.5789 14.6123 15.6667 14.8334 15.6667C15.0544 15.6667 15.2663 15.5789 15.4226 15.4226C15.5789 15.2663 15.6667 15.0544 15.6667 14.8334V9.00002H14ZM4.00002 4.00002H9.00002V9.00002H4.00002V4.00002ZM5.66669 5.66669V7.33335H7.33335V5.66669H5.66669ZM4.00002 9.83335H10.6667V11.5H4.00002V9.83335ZM4.00002 12.3334H10.6667V14H4.00002V12.3334Z" fill="#447BBA"/>
</svg>
