<svg width="20" height="18" viewBox="0 0 20 18" fill="none" xmlns="http://www.w3.org/2000/svg">
<path d="M15 13.1667V17.3334H13.3334V13.1667C13.3334 9.45752 15.5367 6.26252 18.7059 4.82002L19.3959 6.33669C18.0848 6.933 16.9731 7.89414 16.1936 9.10529C15.4141 10.3164 14.9997 11.7264 15 13.1667ZM6.66669 13.1667V17.3334H5.00002V13.1667C5.00014 11.7265 4.58571 10.3168 3.80622 9.10577C3.02673 7.89479 1.91513 6.93378 0.604187 6.33752L1.29419 4.82002C2.89643 5.54876 4.25502 6.72332 5.20771 8.2034C6.16039 9.68348 6.66688 11.4065 6.66669 13.1667ZM10 9.00002C8.89495 9.00002 7.83514 8.56103 7.05374 7.77963C6.27234 6.99823 5.83335 5.93842 5.83335 4.83335C5.83335 3.72829 6.27234 2.66848 7.05374 1.88708C7.83514 1.10567 8.89495 0.666687 10 0.666687C11.1051 0.666687 12.1649 1.10567 12.9463 1.88708C13.7277 2.66848 14.1667 3.72829 14.1667 4.83335C14.1667 5.93842 13.7277 6.99823 12.9463 7.77963C12.1649 8.56103 11.1051 9.00002 10 9.00002ZM10 7.33335C10.3283 7.33335 10.6534 7.26869 10.9567 7.14305C11.26 7.01742 11.5356 6.83327 11.7678 6.60112C11.9999 6.36897 12.1841 6.09338 12.3097 5.79006C12.4354 5.48675 12.5 5.16166 12.5 4.83335C12.5 4.50505 12.4354 4.17996 12.3097 3.87665C12.1841 3.57333 11.9999 3.29773 11.7678 3.06559C11.5356 2.83344 11.26 2.64929 10.9567 2.52366C10.6534 2.39802 10.3283 2.33335 10 2.33335C9.33698 2.33335 8.70109 2.59675 8.23225 3.06559C7.76341 3.53443 7.50002 4.17031 7.50002 4.83335C7.50002 5.4964 7.76341 6.13228 8.23225 6.60112C8.70109 7.06996 9.33698 7.33335 10 7.33335Z" fill="#447BBA"/>
</svg>
